<?xml version="1.0" encoding="UTF-8" standalone="no"?>
<svg width="243px" height="45px" viewBox="0 0 243 45" version="1.1" xmlns="http://www.w3.org/2000/svg" xmlns:xlink="http://www.w3.org/1999/xlink">
    <!-- Generator: Sketch 39.1 (31720) - http://www.bohemiancoding.com/sketch -->
    <title>Group</title>
    <desc>Created with Sketch.</desc>
    <defs></defs>
    <g id="Page-1" stroke="none" stroke-width="1" fill="none" fill-rule="evenodd">
        <g id="Desktop" transform="translate(-391.000000, -157.000000)">
            <g id="Group" transform="translate(391.000000, 157.000000)">
                <path d="M26.9236922,44.3212883 L26.9236922,22.5919089 L32.6512397,22.5919089 L32.6512397,30.5455617 L40.6255047,30.5455617 L40.6255047,22.5919089 L46.3688741,22.5919089 L46.3688741,44.3212883 L40.6255047,44.3212883 L40.6255047,35.8108798 L32.6512397,35.8108798 L32.6512397,44.3212883 L26.9236922,44.3212883 Z M56.7164322,44.3212883 L64.6590533,22.5919089 L71.2409863,22.5919089 L78.8829902,44.3212883 L72.696606,44.3212883 L71.3042741,39.8195208 L64.073641,39.8195208 L62.6496651,44.3212883 L56.7164322,44.3212883 Z M65.2444656,35.6199921 L70.1334495,35.6199921 L67.7443344,27.6345247 L65.2444656,35.6199921 Z M88.4078067,33.5043205 C88.4078067,31.8499525 88.6767772,30.3228664 89.2147263,28.9230165 C89.7526755,27.5231666 90.5173956,26.3089211 91.5089097,25.2802435 C92.5004238,24.2515659 93.6896955,23.4482551 95.0767604,22.8702867 C96.4638253,22.2923184 97.9853547,22.0033386 99.6413942,22.0033386 C101.518942,22.0033386 103.25934,22.3188303 104.862639,22.9498233 C106.465939,23.5808162 107.816065,24.6757581 108.913059,26.2346819 L105.11579,30.0842498 C104.514553,29.2570658 103.792024,28.594268 102.948183,28.0958366 C102.104341,27.5974052 101.144485,27.3481932 100.068587,27.3481932 C99.1614571,27.3481932 98.3519085,27.4993111 97.639917,27.8015515 C96.9279255,28.1037918 96.3293342,28.5279823 95.8441252,29.0741359 C95.3589162,29.6202895 94.984467,30.2565753 94.7207664,30.9830126 C94.4570659,31.7094498 94.3252176,32.4968536 94.3252176,33.3452474 C94.3252176,34.2148512 94.4623398,35.0181621 94.7365884,35.7552042 C95.010837,36.4922464 95.395834,37.1311835 95.8915911,37.6720346 C96.3873481,38.2128857 96.9859394,38.6370762 97.6873829,38.944619 C98.3888264,39.2521618 99.1720053,39.4059309 100.036943,39.4059309 C101.292158,39.4059309 102.312664,39.1832308 103.098491,38.737824 C103.884319,38.2924173 104.65695,37.5925028 105.416408,36.6380597 L109.276964,40.2808327 C106.840371,43.3456555 103.628547,44.878044 99.6413942,44.878044 C97.9748067,44.878044 96.4506404,44.5943665 95.0688494,44.0270031 C93.6870585,43.4596397 92.5056977,42.6775384 91.5247317,41.6806756 C90.5437656,40.6838128 89.7790455,39.4907768 89.2305483,38.1015318 C88.6820511,36.7122868 88.4078067,35.1798984 88.4078067,33.5043205 L88.4078067,33.5043205 Z M119.466303,44.3212883 L119.466303,22.5919089 L125.19385,22.5919089 L125.19385,30.7364493 L131.649208,22.5919089 L138.357716,22.5919089 L131.158727,30.9591516 L139.496897,44.3212883 L132.519415,44.3212883 L127.234883,35.5245483 L125.19385,37.9424588 L125.19385,44.3212883 L119.466303,44.3212883 Z M149.860277,44.3212883 L149.860277,22.5919089 L155.587825,22.5919089 L155.587825,44.3212883 L149.860277,44.3212883 Z M166.283466,27.6345247 L166.283466,22.5919089 L185.301455,22.5919089 L185.301455,27.6345247 L178.719522,27.6345247 L178.719522,44.3212883 L172.928687,44.3212883 L172.928687,27.6345247 L166.283466,27.6345247 Z M194.367435,44.3212883 L202.310056,22.5919089 L208.891989,22.5919089 L216.533993,44.3212883 L210.347609,44.3212883 L208.955277,39.8195208 L201.724643,39.8195208 L200.300668,44.3212883 L194.367435,44.3212883 Z M202.895468,35.6199921 L207.784452,35.6199921 L205.395337,27.6345247 L202.895468,35.6199921 Z M226.897373,44.3212883 L226.897373,22.5919089 L232.62492,22.5919089 L232.62492,39.2468578 L242.640217,39.2468578 L242.640217,44.3212883 L226.897373,44.3212883 Z" id="HACKITAL" fill="#0F0F29"></path>
                <polygon id="Line" fill="#ED1B24" points="27.002802 2.91987431 27.002802 13.7792616 27.002802 16.4941084 32.4033624 16.4941084 32.4033624 13.7792616 32.4033624 2.91987431 32.4033624 0.205027494 27.002802 0.205027494"></polygon>
                <polygon id="Line" fill="#ED1B24" points="40.504203 2.83536416 40.504203 13.7792616 40.504203 16.4941084 45.9047634 16.4941084 45.9047634 13.7792616 45.9047634 2.83536416 45.9047634 0.120517344 40.504203 0.120517344"></polygon>
                <polygon id="Line" fill="#ED1B24" points="13.501401 2.91987431 13.501401 41.6064415 13.501401 44.3212883 18.9019614 44.3212883 18.9019614 41.6064415 18.9019614 2.91987431 18.9019614 0.205027494 13.501401 0.205027494"></polygon>
                <polygon id="Line" fill="#ED1B24" points="0 2.91987431 0 41.6064415 0 44.3212883 5.4005604 44.3212883 5.4005604 41.6064415 5.4005604 2.91987431 5.4005604 0.205027494 0 0.205027494"></polygon>
            </g>
        </g>
    </g>
</svg>