<?xml version="1.0" encoding="UTF-8"?>
<svg width="1487px" height="1420px" viewBox="0 0 1487 1420" version="1.1" xmlns="http://www.w3.org/2000/svg" xmlns:xlink="http://www.w3.org/1999/xlink">
    <!-- Generator: Sketch 46.2 (44496) - http://www.bohemiancoding.com/sketch -->
    <title>hackital</title>
    <desc>Created with Sketch.</desc>
    <defs></defs>
    <g id="Page-1" stroke="none" stroke-width="1" fill="none" fill-rule="evenodd">
        <g id="hackital">
            <polygon id="HACKITAL" fill="#FFFFFF" points="863 1420 863 724 1046.79821 724 1046.79821 978.758419 1302.69406 978.758419 1302.69406 724 1487 724 1487 1420 1302.69406 1420 1302.69406 1147.40849 1046.79821 1147.40849 1046.79821 1420"></polygon>
            <polygon id="Line" fill="#ED2C3E" fill-rule="nonzero" points="863 92.1666667 863 440.833333 863 528 1036 528 1036 440.833333 1036 92.1666667 1036 5 863 5"></polygon>
            <polygon id="Line" fill="#ED2C3E" fill-rule="nonzero" points="1298 86.7167673 1298 436.283233 1298 523 1471 523 1471 436.283233 1471 86.7167673 1471 0 1298 0"></polygon>
            <polygon id="Line" fill="#ED2C3E" fill-rule="nonzero" points="435 92.0769231 435 1332.92308 435 1420 608 1420 608 1332.92308 608 92.0769231 608 5 435 5"></polygon>
            <polygon id="Line" fill="#ED2C3E" fill-rule="nonzero" points="0 92.0769231 0 1332.92308 0 1420 173 1420 173 1332.92308 173 92.0769231 173 5 0 5"></polygon>
        </g>
    </g>
</svg>
